<svg xmlns="http://www.w3.org/2000/svg" version="1.1" xmlns:xlink="http://www.w3.org/1999/xlink" xmlns:svgjs="http://svgjs.com/svgjs" width="1440" height="560" preserveAspectRatio="none" viewBox="0 0 1440 560"><g mask="url(&quot;#SvgjsMask2072&quot;)" fill="none"><rect width="1440" height="560" x="0" y="0" fill="rgba(255, 153, 0, 1)"></rect><path d="M0 0L311.65 0L0 201.78z" fill="rgba(255, 255, 255, .1)"></path><path d="M0 201.78L311.65 0L485.54999999999995 0L0 339.68z" fill="rgba(255, 255, 255, .075)"></path><path d="M0 339.68L485.54999999999995 0L1010.3299999999999 0L0 347.15000000000003z" fill="rgba(255, 255, 255, .05)"></path><path d="M0 347.15000000000003L1010.3299999999999 0L1110.6799999999998 0L0 430.72z" fill="rgba(255, 255, 255, .025)"></path><path d="M1440 560L993.15 560L1440 343.53z" fill="rgba(0, 0, 0, .1)"></path><path d="M1440 343.53L993.15 560L518.49 560L1440 337.14z" fill="rgba(0, 0, 0, .075)"></path><path d="M1440 337.14L518.49 560L298.3 560L1440 226.13z" fill="rgba(0, 0, 0, .05)"></path><path d="M1440 226.13L298.29999999999995 560L120.45999999999995 560L1440 93.03z" fill="rgba(0, 0, 0, .025)"></path></g><defs><mask id="SvgjsMask2072"><rect width="1440" height="560" fill="#ffffff"></rect></mask></defs></svg>